<mxfile host="65bd71144e">
    <diagram id="TXBD-LZY1iGdPi2Dcbin" name="第 1 页">
        <mxGraphModel dx="793" dy="516" grid="1" gridSize="10" guides="1" tooltips="1" connect="1" arrows="1" fold="1" page="1" pageScale="1" pageWidth="827" pageHeight="1169" math="1" shadow="0">
            <root>
                <mxCell id="0"/>
                <mxCell id="1" parent="0"/>
                <mxCell id="2" value="\(a\)" style="rounded=0;whiteSpace=wrap;html=1;fontSize=19;fontFamily=Times New Roman;verticalAlign=top;horizontal=1;" parent="1" vertex="1">
                    <mxGeometry x="240" y="280" width="40" height="40" as="geometry"/>
                </mxCell>
                <mxCell id="3" value="\(b\)" style="rounded=0;whiteSpace=wrap;html=1;fontSize=19;fontFamily=Times New Roman;verticalAlign=top;horizontal=1;" parent="1" vertex="1">
                    <mxGeometry x="280" y="280" width="40" height="40" as="geometry"/>
                </mxCell>
                <mxCell id="4" value="\(c\)" style="rounded=0;whiteSpace=wrap;html=1;fontSize=19;fontFamily=Times New Roman;verticalAlign=top;horizontal=1;" parent="1" vertex="1">
                    <mxGeometry x="320" y="280" width="40" height="40" as="geometry"/>
                </mxCell>
                <mxCell id="5" value="\(d\)" style="rounded=0;whiteSpace=wrap;html=1;fontSize=19;fontFamily=Times New Roman;verticalAlign=top;horizontal=1;" parent="1" vertex="1">
                    <mxGeometry x="360" y="280" width="40" height="40" as="geometry"/>
                </mxCell>
                <mxCell id="6" value="\(e\)" style="rounded=0;whiteSpace=wrap;html=1;fontSize=19;fontFamily=Times New Roman;verticalAlign=top;horizontal=1;" parent="1" vertex="1">
                    <mxGeometry x="400" y="280" width="40" height="40" as="geometry"/>
                </mxCell>
                <mxCell id="7" value="\(f\)" style="rounded=0;whiteSpace=wrap;html=1;fontSize=19;fontFamily=Times New Roman;verticalAlign=top;horizontal=1;" parent="1" vertex="1">
                    <mxGeometry x="440" y="280" width="40" height="40" as="geometry"/>
                </mxCell>
                <mxCell id="8" value="" style="rounded=0;whiteSpace=wrap;html=1;fontSize=19;fontFamily=Times New Roman;verticalAlign=top;horizontal=1;" parent="1" vertex="1">
                    <mxGeometry x="480" y="280" width="40" height="40" as="geometry"/>
                </mxCell>
                <mxCell id="9" value="" style="rounded=0;whiteSpace=wrap;html=1;fontSize=19;fontFamily=Times New Roman;verticalAlign=top;horizontal=1;" parent="1" vertex="1">
                    <mxGeometry x="520" y="280" width="40" height="40" as="geometry"/>
                </mxCell>
                <mxCell id="10" value="" style="rounded=0;whiteSpace=wrap;html=1;fontSize=19;fontFamily=Times New Roman;verticalAlign=top;horizontal=1;" parent="1" vertex="1">
                    <mxGeometry x="560" y="280" width="40" height="40" as="geometry"/>
                </mxCell>
                <mxCell id="11" value="" style="rounded=0;whiteSpace=wrap;html=1;fontSize=19;fontFamily=Times New Roman;verticalAlign=top;horizontal=1;" parent="1" vertex="1">
                    <mxGeometry x="600" y="280" width="40" height="40" as="geometry"/>
                </mxCell>
                <mxCell id="IVFaFTObQ1elEo1e6XH0-25" value="&lt;font style=&quot;font-size: 19px;&quot;&gt;\(0\)&lt;/font&gt;" style="text;html=1;align=center;verticalAlign=middle;resizable=0;points=[];autosize=1;strokeColor=none;fillColor=none;fontSize=19;fontFamily=Times New Roman;" parent="1" vertex="1">
                    <mxGeometry x="230" y="243" width="60" height="40" as="geometry"/>
                </mxCell>
                <mxCell id="IVFaFTObQ1elEo1e6XH0-26" value="&lt;font style=&quot;font-size: 19px;&quot;&gt;maxSize\(-1\)&lt;/font&gt;" style="text;html=1;align=center;verticalAlign=middle;resizable=0;points=[];autosize=1;strokeColor=none;fillColor=none;fontSize=19;fontFamily=Times New Roman;" parent="1" vertex="1">
                    <mxGeometry x="555" y="243" width="130" height="40" as="geometry"/>
                </mxCell>
                <mxCell id="IVFaFTObQ1elEo1e6XH0-27" value="" style="endArrow=classic;html=1;rounded=0;entryX=-0.082;entryY=0.632;entryDx=0;entryDy=0;entryPerimeter=0;exitX=0.8;exitY=0.94;exitDx=0;exitDy=0;exitPerimeter=0;fontSize=19;fontFamily=Times New Roman;" parent="1" source="IVFaFTObQ1elEo1e6XH0-33" target="2" edge="1">
                    <mxGeometry width="50" height="50" relative="1" as="geometry">
                        <mxPoint x="250" y="350" as="sourcePoint"/>
                        <mxPoint x="270" y="320" as="targetPoint"/>
                        <Array as="points"/>
                    </mxGeometry>
                </mxCell>
                <mxCell id="IVFaFTObQ1elEo1e6XH0-33" value="&lt;font style=&quot;font-size: 19px;&quot;&gt;&lt;font style=&quot;font-size: 19px;&quot;&gt;elem&lt;/font&gt;&lt;br style=&quot;font-size: 19px;&quot;&gt;&lt;/font&gt;" style="text;html=1;align=center;verticalAlign=middle;resizable=0;points=[];autosize=1;strokeColor=none;fillColor=none;fontSize=19;fontFamily=Times New Roman;" parent="1" vertex="1">
                    <mxGeometry x="155" y="255" width="60" height="40" as="geometry"/>
                </mxCell>
                <mxCell id="IVFaFTObQ1elEo1e6XH0-34" value="" style="endArrow=classic;html=1;rounded=0;fontSize=19;fontFamily=Times New Roman;" parent="1" edge="1">
                    <mxGeometry width="50" height="50" relative="1" as="geometry">
                        <mxPoint x="460" y="350" as="sourcePoint"/>
                        <mxPoint x="460" y="320" as="targetPoint"/>
                    </mxGeometry>
                </mxCell>
                <mxCell id="IVFaFTObQ1elEo1e6XH0-35" value="&lt;font style=&quot;font-size: 19px;&quot;&gt;rear&lt;/font&gt;" style="text;html=1;align=center;verticalAlign=middle;resizable=0;points=[];autosize=1;strokeColor=none;fillColor=none;fontSize=19;fontFamily=Times New Roman;" parent="1" vertex="1">
                    <mxGeometry x="435" y="335" width="50" height="40" as="geometry"/>
                </mxCell>
                <mxCell id="Mip8C-VVgnY4NwRnGFyO-13" value="" style="endArrow=classic;html=1;rounded=0;fontSize=19;fontFamily=Times New Roman;" parent="1" edge="1">
                    <mxGeometry width="50" height="50" relative="1" as="geometry">
                        <mxPoint x="220" y="350" as="sourcePoint"/>
                        <mxPoint x="220" y="320" as="targetPoint"/>
                    </mxGeometry>
                </mxCell>
                <mxCell id="Mip8C-VVgnY4NwRnGFyO-14" value="&lt;font style=&quot;font-size: 19px;&quot;&gt;front&lt;/font&gt;" style="text;html=1;align=center;verticalAlign=middle;resizable=0;points=[];autosize=1;strokeColor=none;fillColor=none;fontSize=19;fontFamily=Times New Roman;" parent="1" vertex="1">
                    <mxGeometry x="190" y="335" width="60" height="40" as="geometry"/>
                </mxCell>
            </root>
        </mxGraphModel>
    </diagram>
</mxfile>